<svg width="18" height="20" viewBox="0 0 18 20" fill="none" xmlns="http://www.w3.org/2000/svg">
<path d="M0 18.125C0 19.1602 0.839844 20 1.875 20H15.625C16.6602 20 17.5 19.1602 17.5 18.125V7.5H0V18.125ZM12.5 10.4688C12.5 10.2109 12.7109 10 12.9688 10H14.5312C14.7891 10 15 10.2109 15 10.4688V12.0312C15 12.2891 14.7891 12.5 14.5312 12.5H12.9688C12.7109 12.5 12.5 12.2891 12.5 12.0312V10.4688ZM12.5 15.4688C12.5 15.2109 12.7109 15 12.9688 15H14.5312C14.7891 15 15 15.2109 15 15.4688V17.0312C15 17.2891 14.7891 17.5 14.5312 17.5H12.9688C12.7109 17.5 12.5 17.2891 12.5 17.0312V15.4688ZM7.5 10.4688C7.5 10.2109 7.71094 10 7.96875 10H9.53125C9.78906 10 10 10.2109 10 10.4688V12.0312C10 12.2891 9.78906 12.5 9.53125 12.5H7.96875C7.71094 12.5 7.5 12.2891 7.5 12.0312V10.4688ZM7.5 15.4688C7.5 15.2109 7.71094 15 7.96875 15H9.53125C9.78906 15 10 15.2109 10 15.4688V17.0312C10 17.2891 9.78906 17.5 9.53125 17.5H7.96875C7.71094 17.5 7.5 17.2891 7.5 17.0312V15.4688ZM2.5 10.4688C2.5 10.2109 2.71094 10 2.96875 10H4.53125C4.78906 10 5 10.2109 5 10.4688V12.0312C5 12.2891 4.78906 12.5 4.53125 12.5H2.96875C2.71094 12.5 2.5 12.2891 2.5 12.0312V10.4688ZM2.5 15.4688C2.5 15.2109 2.71094 15 2.96875 15H4.53125C4.78906 15 5 15.2109 5 15.4688V17.0312C5 17.2891 4.78906 17.5 4.53125 17.5H2.96875C2.71094 17.5 2.5 17.2891 2.5 17.0312V15.4688ZM15.625 2.5H13.75V0.625C13.75 0.28125 13.4688 0 13.125 0H11.875C11.5312 0 11.25 0.28125 11.25 0.625V2.5H6.25V0.625C6.25 0.28125 5.96875 0 5.625 0H4.375C4.03125 0 3.75 0.28125 3.75 0.625V2.5H1.875C0.839844 2.5 0 3.33984 0 4.375V6.25H17.5V4.375C17.5 3.33984 16.6602 2.5 15.625 2.5Z" fill="#2F80ED"/>
</svg>
