<svg width="18" height="20" viewBox="0 0 18 20" fill="none" xmlns="http://www.w3.org/2000/svg">
<path d="M17.5 14.0625V0.9375C17.5 0.417969 17.082 0 16.5625 0H3.75C1.67969 0 0 1.67969 0 3.75V16.25C0 18.3203 1.67969 20 3.75 20H16.5625C17.082 20 17.5 19.582 17.5 19.0625V18.4375C17.5 18.1445 17.3633 17.8789 17.1523 17.707C16.9883 17.1055 16.9883 15.3906 17.1523 14.7891C17.3633 14.6211 17.5 14.3555 17.5 14.0625ZM5 5.23438C5 5.10547 5.10547 5 5.23438 5H13.5156C13.6445 5 13.75 5.10547 13.75 5.23438V6.01562C13.75 6.14453 13.6445 6.25 13.5156 6.25H5.23438C5.10547 6.25 5 6.14453 5 6.01562V5.23438ZM5 7.73438C5 7.60547 5.10547 7.5 5.23438 7.5H13.5156C13.6445 7.5 13.75 7.60547 13.75 7.73438V8.51562C13.75 8.64453 13.6445 8.75 13.5156 8.75H5.23438C5.10547 8.75 5 8.64453 5 8.51562V7.73438ZM14.8984 17.5H3.75C3.05859 17.5 2.5 16.9414 2.5 16.25C2.5 15.5625 3.0625 15 3.75 15H14.8984C14.8242 15.668 14.8242 16.832 14.8984 17.5Z" fill="#2F80ED"/>
</svg>
