<svg width="20" height="16" viewBox="0 0 20 16" fill="none" xmlns="http://www.w3.org/2000/svg">
<path d="M19.25 6H15V0.75C15 0.335625 14.6644 0 14.25 0H9.75C9.33562 0 9 0.335625 9 0.75V3H7V0.5C7 0.22375 6.77625 0 6.5 0H6C5.72375 0 5.5 0.22375 5.5 0.5V3H3.5V0.5C3.5 0.22375 3.27625 0 3 0H2.5C2.22375 0 2 0.22375 2 0.5V3H0.75C0.335625 3 0 3.33562 0 3.75V15C0 15.5522 0.447812 16 1 16H19C19.5522 16 20 15.5522 20 15V6.75C20 6.33563 19.6641 6 19.25 6ZM4 12.625C4 12.8322 3.83219 13 3.625 13H2.375C2.16781 13 2 12.8322 2 12.625V11.375C2 11.1678 2.16781 11 2.375 11H3.625C3.83219 11 4 11.1678 4 11.375V12.625ZM4 9.625C4 9.83219 3.83219 10 3.625 10H2.375C2.16781 10 2 9.83219 2 9.625V8.375C2 8.16781 2.16781 8 2.375 8H3.625C3.83219 8 4 8.16781 4 8.375V9.625ZM4 6.625C4 6.83219 3.83219 7 3.625 7H2.375C2.16781 7 2 6.83219 2 6.625V5.375C2 5.16781 2.16781 5 2.375 5H3.625C3.83219 5 4 5.16781 4 5.375V6.625ZM8 12.625C8 12.8322 7.83219 13 7.625 13H6.375C6.16781 13 6 12.8322 6 12.625V11.375C6 11.1678 6.16781 11 6.375 11H7.625C7.83219 11 8 11.1678 8 11.375V12.625ZM8 9.625C8 9.83219 7.83219 10 7.625 10H6.375C6.16781 10 6 9.83219 6 9.625V8.375C6 8.16781 6.16781 8 6.375 8H7.625C7.83219 8 8 8.16781 8 8.375V9.625ZM8 6.625C8 6.83219 7.83219 7 7.625 7H6.375C6.16781 7 6 6.83219 6 6.625V5.375C6 5.16781 6.16781 5 6.375 5H7.625C7.83219 5 8 5.16781 8 5.375V6.625ZM13 9.625C13 9.83219 12.8322 10 12.625 10H11.375C11.1678 10 11 9.83219 11 9.625V8.375C11 8.16781 11.1678 8 11.375 8H12.625C12.8322 8 13 8.16781 13 8.375V9.625ZM13 6.625C13 6.83219 12.8322 7 12.625 7H11.375C11.1678 7 11 6.83219 11 6.625V5.375C11 5.16781 11.1678 5 11.375 5H12.625C12.8322 5 13 5.16781 13 5.375V6.625ZM13 3.625C13 3.83219 12.8322 4 12.625 4H11.375C11.1678 4 11 3.83219 11 3.625V2.375C11 2.16781 11.1678 2 11.375 2H12.625C12.8322 2 13 2.16781 13 2.375V3.625ZM18 12.625C18 12.8322 17.8322 13 17.625 13H16.375C16.1678 13 16 12.8322 16 12.625V11.375C16 11.1678 16.1678 11 16.375 11H17.625C17.8322 11 18 11.1678 18 11.375V12.625ZM18 9.625C18 9.83219 17.8322 10 17.625 10H16.375C16.1678 10 16 9.83219 16 9.625V8.375C16 8.16781 16.1678 8 16.375 8H17.625C17.8322 8 18 8.16781 18 8.375V9.625Z" fill="#2F80ED"/>
</svg>
