<svg width="20" height="15" viewBox="0 0 20 15" fill="none" xmlns="http://www.w3.org/2000/svg">
<path d="M19.6211 4.95312C19.7734 4.83203 20 4.94531 20 5.13672V13.125C20 14.1602 19.1602 15 18.125 15H1.875C0.839844 15 0 14.1602 0 13.125V5.14062C0 4.94531 0.222656 4.83594 0.378906 4.95703C1.25391 5.63672 2.41406 6.5 6.39844 9.39453C7.22266 9.99609 8.61328 11.2617 10 11.2539C11.3945 11.2656 12.8125 9.97266 13.6055 9.39453C17.5898 6.5 18.7461 5.63281 19.6211 4.95312ZM10 10C10.9062 10.0156 12.2109 8.85938 12.8672 8.38281C18.0508 4.62109 18.4453 4.29297 19.6406 3.35547C19.8672 3.17969 20 2.90625 20 2.61719V1.875C20 0.839844 19.1602 0 18.125 0H1.875C0.839844 0 0 0.839844 0 1.875V2.61719C0 2.90625 0.132812 3.17578 0.359375 3.35547C1.55469 4.28906 1.94922 4.62109 7.13281 8.38281C7.78906 8.85938 9.09375 10.0156 10 10Z" fill="#2F80ED"/>
</svg>
