<svg width="283" height="105" viewBox="0 0 283 105" fill="none" xmlns="http://www.w3.org/2000/svg">
<path fill-rule="evenodd" clip-rule="evenodd" d="M20 0C8.95431 0 0 8.9543 0 20V85C0 96.0457 8.9543 105 20 105H85C96.0457 105 105 96.0457 105 85V20C105 8.95431 96.0457 0 85 0H20ZM59.9409 42.2584L52.5 19.3575L45.0591 42.2584L20.9796 42.2584L40.4603 56.4119L33.0194 79.3128L52.5 65.1593L71.9807 79.3128L64.5397 56.4119L84.0204 42.2584L59.9409 42.2584Z" fill="url(#paint0_linear)"/>
<path d="M122.36 36.4H131.864V62.464H147.896V70H122.36V36.4ZM164.187 70.432C161.403 70.432 158.891 69.856 156.651 68.704C154.411 67.552 152.651 65.952 151.371 63.904C150.123 61.856 149.499 59.536 149.499 56.944C149.499 54.384 150.123 52.08 151.371 50.032C152.651 47.984 154.395 46.4 156.603 45.28C158.843 44.128 161.371 43.552 164.187 43.552C167.003 43.552 169.531 44.128 171.771 45.28C174.011 46.4 175.755 47.984 177.003 50.032C178.251 52.048 178.875 54.352 178.875 56.944C178.875 59.536 178.251 61.856 177.003 63.904C175.755 65.952 174.011 67.552 171.771 68.704C169.531 69.856 167.003 70.432 164.187 70.432ZM164.187 63.184C165.787 63.184 167.099 62.64 168.123 61.552C169.147 60.432 169.659 58.896 169.659 56.944C169.659 55.024 169.147 53.52 168.123 52.432C167.099 51.344 165.787 50.8 164.187 50.8C162.587 50.8 161.275 51.344 160.251 52.432C159.227 53.52 158.715 55.024 158.715 56.944C158.715 58.896 159.227 60.432 160.251 61.552C161.275 62.64 162.587 63.184 164.187 63.184ZM191.788 47.104C192.716 45.92 193.916 45.04 195.388 44.464C196.892 43.856 198.604 43.552 200.524 43.552V51.76C199.692 51.664 199.004 51.616 198.46 51.616C196.508 51.616 194.972 52.144 193.852 53.2C192.764 54.256 192.22 55.872 192.22 58.048V70H183.1V43.984H191.788V47.104ZM230.645 57.04C230.645 57.104 230.597 57.856 230.501 59.296H211.589C211.973 60.64 212.709 61.68 213.797 62.416C214.917 63.12 216.309 63.472 217.973 63.472C219.221 63.472 220.293 63.296 221.189 62.944C222.117 62.592 223.045 62.016 223.973 61.216L228.773 66.208C226.245 69.024 222.549 70.432 217.685 70.432C214.645 70.432 211.973 69.856 209.669 68.704C207.365 67.552 205.573 65.952 204.293 63.904C203.045 61.856 202.421 59.536 202.421 56.944C202.421 54.384 203.029 52.096 204.245 50.08C205.493 48.032 207.205 46.432 209.381 45.28C211.557 44.128 214.005 43.552 216.725 43.552C219.317 43.552 221.669 44.096 223.781 45.184C225.893 46.24 227.557 47.792 228.773 49.84C230.021 51.856 230.645 54.256 230.645 57.04ZM216.773 50.032C215.365 50.032 214.181 50.432 213.221 51.232C212.293 52.032 211.701 53.12 211.445 54.496H222.101C221.845 53.12 221.237 52.032 220.277 51.232C219.349 50.432 218.181 50.032 216.773 50.032ZM268.738 43.552C271.938 43.552 274.482 44.512 276.37 46.432C278.29 48.352 279.25 51.248 279.25 55.12V70H270.13V56.608C270.13 54.784 269.778 53.44 269.074 52.576C268.402 51.712 267.442 51.28 266.194 51.28C264.818 51.28 263.714 51.76 262.882 52.72C262.05 53.68 261.634 55.136 261.634 57.088V70H252.514V56.608C252.514 53.056 251.202 51.28 248.578 51.28C247.17 51.28 246.05 51.76 245.218 52.72C244.386 53.68 243.97 55.136 243.97 57.088V70H234.85V43.984H243.538V46.72C244.498 45.664 245.634 44.88 246.946 44.368C248.29 43.824 249.746 43.552 251.314 43.552C253.138 43.552 254.77 43.888 256.21 44.56C257.65 45.232 258.818 46.256 259.714 47.632C260.738 46.32 262.034 45.312 263.602 44.608C265.17 43.904 266.882 43.552 268.738 43.552Z" fill="white"/>
<defs>
<linearGradient id="paint0_linear" x1="100.307" y1="161.606" x2="-7.919" y2="-7.62571" gradientUnits="userSpaceOnUse">
<stop stop-color="white"/>
<stop offset="0.965959" stop-color="white"/>
</linearGradient>
</defs>
</svg>
