<svg width="24" height="24" viewBox="0 0 24 24" fill="none" xmlns="http://www.w3.org/2000/svg">
<path d="M21.9186 12.6411C21.6418 11.7929 20.7177 11.342 19.8651 11.6188L17.8383 12.2929L16.4857 8.27509L18.5124 7.60099C19.3651 7.32421 19.8115 6.40458 19.5392 5.55192C19.2624 4.70372 18.3383 4.25283 17.4856 4.52961L15.4589 5.20371L14.758 3.10553C14.4812 2.25733 13.5571 1.80644 12.7045 2.08322C11.8518 2.36 11.4054 3.27963 11.6777 4.1323L12.3786 6.23048L8.20901 7.62331L7.50813 5.52513C7.23135 4.67693 6.30726 4.22605 5.45459 4.50283C4.60193 4.77961 4.15551 5.69924 4.42783 6.5519L5.12871 8.65008L3.10642 9.31971C2.25375 9.59649 1.80733 10.5161 2.07965 11.3688C2.30286 12.0161 2.93231 12.4402 3.57963 12.467C3.88319 12.5116 4.11533 12.3956 6.15548 11.717L7.50813 15.7348L5.48138 16.4089C4.63318 16.6857 4.18229 17.6098 4.45461 18.458C4.67782 19.1053 5.30727 19.5294 5.95459 19.5561C6.25815 19.6008 6.49029 19.4847 8.53044 18.8062L9.23132 20.9043C9.49471 21.6588 10.334 22.199 11.2849 21.9266C12.1375 21.6499 12.5839 20.7302 12.3116 19.8776L11.6107 17.7794L15.7892 16.3821L16.4901 18.4803C16.7535 19.2347 17.5928 19.7749 18.5437 19.5026C19.3963 19.2258 19.8427 18.3062 19.5704 17.4535L18.8696 15.3553L20.8963 14.6812C21.7445 14.4134 22.1954 13.4893 21.9186 12.6411ZM10.575 14.7482L9.22239 10.7215L13.3964 9.32418L14.7491 13.3509L10.575 14.7482Z" fill="white"/>
</svg>
