<svg width="24" height="24" viewBox="0 0 24 24" fill="none" xmlns="http://www.w3.org/2000/svg">
<path d="M19.0045 4.90625C17.1339 3.03125 14.6429 2 11.9955 2C6.53125 2 2.08482 6.44643 2.08482 11.9107C2.08482 13.6562 2.54018 15.3616 3.40625 16.8661L2 22L7.25446 20.6205C8.70089 21.4107 10.3304 21.8259 11.9911 21.8259H11.9955C17.4554 21.8259 22 17.3795 22 11.9152C22 9.26786 20.875 6.78125 19.0045 4.90625ZM11.9955 20.1563C10.5134 20.1563 9.0625 19.7589 7.79911 19.0089L7.5 18.8304L4.38393 19.6473L5.21429 16.6071L5.01786 16.2946C4.19196 14.9821 3.75893 13.4688 3.75893 11.9107C3.75893 7.37054 7.45536 3.67411 12 3.67411C14.2009 3.67411 16.2679 4.53125 17.8214 6.08929C19.375 7.64732 20.3304 9.71429 20.3259 11.9152C20.3259 16.4598 16.5357 20.1563 11.9955 20.1563ZM16.5134 13.9866C16.2679 13.8616 15.0491 13.2634 14.8214 13.183C14.5938 13.0982 14.4286 13.058 14.2634 13.308C14.0982 13.558 13.625 14.1116 13.4777 14.2813C13.3348 14.4464 13.1875 14.4688 12.942 14.3438C11.4866 13.6161 10.5312 13.0446 9.57143 11.3973C9.31696 10.9598 9.82589 10.9911 10.2991 10.0446C10.3795 9.87946 10.3393 9.73661 10.2768 9.61161C10.2143 9.48661 9.71875 8.26786 9.51339 7.77232C9.3125 7.29018 9.10714 7.35714 8.95536 7.34821C8.8125 7.33929 8.64732 7.33929 8.48214 7.33929C8.31696 7.33929 8.04911 7.40179 7.82143 7.64732C7.59375 7.89732 6.95536 8.49554 6.95536 9.71429C6.95536 10.933 7.84375 12.1116 7.96429 12.2768C8.08929 12.442 9.70982 14.942 12.1964 16.0179C13.7679 16.6964 14.3839 16.7545 15.1696 16.6384C15.6473 16.567 16.6339 16.0402 16.8393 15.4598C17.0446 14.8795 17.0446 14.3839 16.9821 14.2813C16.9241 14.1696 16.7589 14.1071 16.5134 13.9866Z" fill="white"/>
</svg>
